<svg xmlns="http://www.w3.org/2000/svg" xmlns:xlink="http://www.w3.org/1999/xlink" viewBox="0 0 370.71 62.63"><defs><style>.cls-1{fill:url(#Безымянный_градиент_64);}.cls-2{fill:url(#Безымянный_градиент_64-2);}.cls-3{fill:url(#Безымянный_градиент_64-3);}.cls-4{fill:url(#Безымянный_градиент_64-4);}.cls-5{fill:url(#Безымянный_градиент_64-5);}.cls-6{fill:url(#Безымянный_градиент_64-6);}.cls-7{fill:url(#Безымянный_градиент_66);}.cls-8{fill:url(#Безымянный_градиент_66-2);}.cls-9{fill:url(#Безымянный_градиент_66-3);}.cls-10{fill:url(#Безымянный_градиент_66-4);}.cls-11{fill:url(#Безымянный_градиент_64-7);}.cls-12{fill:url(#Безымянный_градиент_66-5);}</style><linearGradient id="Безымянный_градиент_64" x1="81.9" y1="10.61" x2="96.89" y2="42.77" gradientUnits="userSpaceOnUse"><stop offset="0" stop-color="#3660c2"/><stop offset="0.4" stop-color="#365fc0"/><stop offset="1" stop-color="#274585"/></linearGradient><linearGradient id="Безымянный_градиент_64-2" x1="118.3" y1="5.65" x2="137.57" y2="46.97" xlink:href="#Безымянный_градиент_64"/><linearGradient id="Безымянный_градиент_64-3" x1="155.12" y1="13.23" x2="171.36" y2="48.07" xlink:href="#Безымянный_градиент_64"/><linearGradient id="Безымянный_градиент_64-4" x1="189.46" y1="8.68" x2="207" y2="46.29" xlink:href="#Безымянный_градиент_64"/><linearGradient id="Безымянный_градиент_64-5" x1="224.8" y1="6.38" x2="240.26" y2="39.52" xlink:href="#Безымянный_градиент_64"/><linearGradient id="Безымянный_градиент_64-6" x1="243.88" y1="26.16" x2="248.21" y2="35.45" xlink:href="#Безымянный_градиент_64"/><linearGradient id="Безымянный_градиент_66" x1="264.75" y1="7.78" x2="273.69" y2="41.16" gradientUnits="userSpaceOnUse"><stop offset="0.24" stop-color="#79c22e"/><stop offset="0.9" stop-color="#64a22e"/></linearGradient><linearGradient id="Безымянный_градиент_66-2" x1="290.44" y1="10.8" x2="300.27" y2="47.48" xlink:href="#Безымянный_градиент_66"/><linearGradient id="Безымянный_градиент_66-3" x1="327.13" y1="5.25" x2="336.88" y2="41.66" xlink:href="#Безымянный_градиент_66"/><linearGradient id="Безымянный_градиент_66-4" x1="351.5" y1="9.18" x2="360.79" y2="43.88" xlink:href="#Безымянный_градиент_66"/><linearGradient id="Безымянный_градиент_64-7" x1="22.07" y1="-4.02" x2="35.21" y2="24.16" xlink:href="#Безымянный_градиент_64"/><linearGradient id="Безымянный_градиент_66-5" x1="26.53" y1="25.56" x2="34.63" y2="55.79" xlink:href="#Безымянный_градиент_66"/></defs><g id="Layer_2" data-name="Layer 2"><g id="Слой_1" data-name="Слой 1"><path class="cls-1" d="M96.38,19.16l0,.15,7.47-1.73-.06-.17c-2-6.12-6.43-9.22-13.2-9.22-3.94,0-7.07,1.15-9.32,3.41a10.91,10.91,0,0,0-3.38,7.89,9.35,9.35,0,0,0,1.28,4.88,8.92,8.92,0,0,0,3.45,3.31,26.76,26.76,0,0,0,5.76,2.11,19.66,19.66,0,0,1,5,1.8,2.56,2.56,0,0,1,1,2.28A3.42,3.42,0,0,1,93,36.64a6.3,6.3,0,0,1-4,1.1c-3.89,0-6.14-1.64-6.89-5l0-.16-7.76,1.07,0,.17a11.75,11.75,0,0,0,4.77,8,16.43,16.43,0,0,0,9.58,2.67c4.47,0,8-1.12,10.41-3.34a10.87,10.87,0,0,0,3.67-8.33,9.87,9.87,0,0,0-1.34-5.27,8.86,8.86,0,0,0-3.82-3.37,35.6,35.6,0,0,0-6.74-2.27A12.73,12.73,0,0,1,87,20.45a2.44,2.44,0,0,1-1-2.11A3,3,0,0,1,87.23,16h0a5.21,5.21,0,0,1,3.37-1C93.69,15,95.58,16.33,96.38,19.16Z"/><polygon class="cls-2" points="137.16 8.76 127.16 29.62 124.12 8.76 111.65 8.76 105.78 43.86 112.68 43.86 117.45 15.35 121.95 43.72 121.97 43.86 126.86 43.86 140.45 15.74 135.75 43.86 144.22 43.86 150.1 8.76 137.16 8.76"/><path class="cls-3" d="M164.7,8.75,148,43.86h7.91l3.35-7.64h11.42l1.11,7.64h8.63L174.46,8.75ZM162,29.82l5.76-13.13,1.92,13.13Z"/><path class="cls-4" d="M209.86,9.82h0a21.2,21.2,0,0,0-7.57-1.07h-13l-5.83,34.92,0,.19h8.14L193.89,30h6.19l3.64,13.83h8.48l-4.34-15.13a9.89,9.89,0,0,0,5.92-3.87,10.37,10.37,0,0,0,.31-11.35A8.57,8.57,0,0,0,209.86,9.82Zm-3.53,12a4.28,4.28,0,0,1-2.24,1.47,17.5,17.5,0,0,1-4.34.39H194.8l1.43-8.48h5.12a8.24,8.24,0,0,1,4.53.94,3.4,3.4,0,0,1,1.31,3A4.23,4.23,0,0,1,206.33,21.8Z"/><polygon class="cls-5" points="245.6 8.76 219.7 8.76 218.55 15.69 227.31 15.69 222.6 43.86 230.95 43.86 235.66 15.69 244.42 15.69 245.6 8.76"/><polygon class="cls-6" points="240.34 27.81 239.34 33.8 251.75 33.8 252.75 27.81 240.34 27.81"/><path class="cls-7" d="M285.36,24.26a13.63,13.63,0,0,0,1.12-5.33,10.16,10.16,0,0,0-1.83-6.12,8.53,8.53,0,0,0-4.35-3.28,22.94,22.94,0,0,0-6.63-.78H261.1l-5.83,34.92,0,.19h8.35l2.18-13H273a23,23,0,0,0,5.29-.45,11.9,11.9,0,0,0,3.84-1.95A9.67,9.67,0,0,0,285.36,24.26ZM277,23a6,6,0,0,1-4.39,1.42h-5.8l1.53-9.12h4c2.53,0,4.19.44,4.92,1.32a4.47,4.47,0,0,1,1.11,2.9A4.84,4.84,0,0,1,277,23Z"/><path class="cls-8" d="M298.08,8.75,281.35,43.86h7.91l3.35-7.64H304l1.11,7.64h8.63L307.84,8.75Zm-2.67,21.07,5.76-13.13,1.92,13.13Z"/><polygon class="cls-9" points="337.2 8.76 328.32 22.32 323.06 8.76 314.04 8.76 322.78 29.09 320.31 43.86 328.66 43.86 331.12 29.12 345.23 8.76 337.2 8.76"/><path class="cls-10" d="M364.47,24.19a35.22,35.22,0,0,0-6.73-2.27,12.62,12.62,0,0,1-3.94-1.47,2.42,2.42,0,0,1-1-2.11A2.94,2.94,0,0,1,354.05,16a5.21,5.21,0,0,1,3.37-1c3.08,0,5,1.38,5.77,4.21l.05.15,7.47-1.73-.06-.17c-2-6.12-6.43-9.22-13.2-9.22-3.94,0-7.07,1.15-9.32,3.41a10.92,10.92,0,0,0-3.39,7.89A9.36,9.36,0,0,0,346,24.37a8.85,8.85,0,0,0,3.45,3.31,26.65,26.65,0,0,0,5.75,2.11,19.5,19.5,0,0,1,5,1.8,2.56,2.56,0,0,1,1,2.28,3.41,3.41,0,0,1-1.36,2.77,6.3,6.3,0,0,1-4,1.1c-3.89,0-6.14-1.64-6.9-5l0-.16-7.77,1.07,0,.17a11.82,11.82,0,0,0,4.77,8,16.46,16.46,0,0,0,9.59,2.67c4.47,0,8-1.12,10.41-3.34a10.87,10.87,0,0,0,3.67-8.33,9.87,9.87,0,0,0-1.34-5.27A8.89,8.89,0,0,0,364.47,24.19Z"/><path class="cls-11" d="M17.63,20.48c-3.38.05-5-1.39-4-4.75l.83-2.8c1.1-2.92,2.88-3.73,5.66-4H44.72c2.71,0,3.75,1.31,3,4L47,15.36H51.7c3.1.18,5.43-.92,6.51-4.11l.92-3.49C60.47,2.69,58.11,0,51.55,0H16.48C11.3,0,7.76,2.35,6.24,6.83L5.63,8.89h0L2.51,19.47c-1.39,5.22-.55,9.89,6.31,9.9h1.4a30.27,30.27,0,0,0,15.4-4.05c2.29-1.23,9.22-4.84,9.22-4.84Z"/><path class="cls-12" d="M53.05,20.48H48.71c-4.79,0-8.25,1.09-14.45,4.23l-8.88,4.66H45.17c5.29,0,6.26,1.75,5.35,5.21C50.4,35,50,36.42,50,36.42c-1,3.18-2.56,4.62-7.79,4.54H14.79c-7.49.1-10.41,2.64-12.58,8.89L.28,56.41c-1.13,4.29,1.23,6.22,6.41,6.22h2.4l1.44-4.86c1.48-5.64,3.05-7.87,8.79-7.92h28.1c6.33-.29,9-1.47,10.36-6l3.69-12.5C63.18,24.13,61.49,20.41,53.05,20.48Z"/></g></g></svg>